<svg width="176" height="30" viewBox="0 0 176 30" fill="none" xmlns="http://www.w3.org/2000/svg">
<path d="M6.848 22.192C6.00533 22.192 5.232 22.0427 4.528 21.744C3.824 21.4347 3.21067 21.008 2.688 20.464C2.176 19.9093 1.776 19.2587 1.488 18.512C1.2 17.7653 1.056 16.944 1.056 16.048C1.056 15.152 1.2 14.3307 1.488 13.584C1.776 12.8373 2.176 12.1867 2.688 11.632C3.21067 11.0773 3.824 10.6507 4.528 10.352C5.232 10.0427 6.00533 9.888 6.848 9.888C7.65867 9.888 8.384 10.032 9.024 10.32C9.67467 10.608 10.2187 10.9813 10.656 11.44C11.104 11.888 11.424 12.3627 11.616 12.864L10.464 13.424C10.1653 12.6987 9.70667 12.128 9.088 11.712C8.46933 11.296 7.72267 11.088 6.848 11.088C5.97333 11.088 5.19467 11.296 4.512 11.712C3.82933 12.128 3.296 12.7093 2.912 13.456C2.528 14.192 2.336 15.056 2.336 16.048C2.336 17.0293 2.528 17.8933 2.912 18.64C3.296 19.3867 3.82933 19.968 4.512 20.384C5.19467 20.7893 5.97333 20.992 6.848 20.992C7.62667 20.992 8.32533 20.8213 8.944 20.48C9.57333 20.1387 10.0693 19.6747 10.432 19.088C10.7947 18.4907 10.976 17.808 10.976 17.04V16.384L11.552 16.96H6.848V15.84H12.256V16.832C12.256 17.6107 12.1173 18.3307 11.84 18.992C11.5627 19.6427 11.1787 20.208 10.688 20.688C10.1973 21.168 9.62133 21.5413 8.96 21.808C8.30933 22.064 7.60533 22.192 6.848 22.192ZM17.5486 22V10.08H18.8286V20.8H24.1086V22H17.5486ZM34.3521 22.192C33.5201 22.192 32.7415 22.0427 32.0161 21.744C31.3015 21.4347 30.6721 21.008 30.1281 20.464C29.5841 19.9093 29.1575 19.2587 28.8481 18.512C28.5388 17.7547 28.3841 16.928 28.3841 16.032C28.3841 15.136 28.5388 14.3147 28.8481 13.568C29.1575 12.8107 29.5841 12.16 30.1281 11.616C30.6721 11.0613 31.3015 10.6347 32.0161 10.336C32.7415 10.0373 33.5201 9.888 34.3521 9.888C35.1841 9.888 35.9575 10.0427 36.6721 10.352C37.3975 10.6507 38.0321 11.0773 38.5761 11.632C39.1201 12.176 39.5468 12.8213 39.8561 13.568C40.1655 14.3147 40.3201 15.136 40.3201 16.032C40.3201 16.928 40.1655 17.7547 39.8561 18.512C39.5468 19.2587 39.1201 19.9093 38.5761 20.464C38.0321 21.008 37.3975 21.4347 36.6721 21.744C35.9575 22.0427 35.1841 22.192 34.3521 22.192ZM34.3521 20.992C35.0455 20.992 35.6748 20.864 36.2401 20.608C36.8161 20.352 37.3121 19.9947 37.7281 19.536C38.1441 19.0773 38.4641 18.5493 38.6881 17.952C38.9228 17.3547 39.0401 16.7147 39.0401 16.032C39.0401 15.36 38.9228 14.7253 38.6881 14.128C38.4641 13.5307 38.1441 13.0027 37.7281 12.544C37.3121 12.0853 36.8161 11.728 36.2401 11.472C35.6748 11.216 35.0455 11.088 34.3521 11.088C33.6588 11.088 33.0241 11.216 32.4481 11.472C31.8828 11.728 31.3921 12.0853 30.9761 12.544C30.5601 13.0027 30.2348 13.5307 30.0001 14.128C29.7761 14.7253 29.6641 15.36 29.6641 16.032C29.6641 16.7147 29.7761 17.3547 30.0001 17.952C30.2348 18.5493 30.5601 19.0773 30.9761 19.536C31.3921 19.9947 31.8881 20.352 32.4641 20.608C33.0401 20.864 33.6695 20.992 34.3521 20.992ZM45.783 22V10.08H50.791C51.463 10.08 52.0443 10.208 52.535 10.464C53.0363 10.7093 53.4203 11.056 53.687 11.504C53.9643 11.952 54.103 12.4747 54.103 13.072C54.103 13.6907 53.9483 14.24 53.639 14.72C53.3403 15.1893 52.9083 15.5467 52.343 15.792L52.327 15.408C52.7963 15.5787 53.1963 15.8187 53.527 16.128C53.8683 16.4373 54.1297 16.8 54.311 17.216C54.4923 17.6213 54.583 18.0587 54.583 18.528C54.583 19.5947 54.2417 20.4427 53.559 21.072C52.887 21.6907 51.9697 22 50.807 22H45.783ZM47.063 20.8H50.807C51.5643 20.8 52.167 20.6027 52.615 20.208C53.0737 19.8027 53.303 19.248 53.303 18.544C53.303 17.8507 53.0737 17.3013 52.615 16.896C52.167 16.48 51.5643 16.272 50.807 16.272H47.063V20.8ZM47.063 15.12H50.695C51.335 15.12 51.847 14.9333 52.231 14.56C52.6257 14.1867 52.823 13.7067 52.823 13.12C52.823 12.5227 52.6257 12.0693 52.231 11.76C51.847 11.44 51.335 11.28 50.695 11.28H47.063V15.12ZM58.6448 22L62.9968 10.08H64.3728L68.7248 22H67.3808L66.3568 19.088H61.0288L59.9888 22H58.6448ZM61.4448 17.888H65.9088L63.4928 11.04H63.8768L61.4448 17.888ZM73.3143 22V10.08H74.5943V20.8H79.8743V22H73.3143Z" fill="black"/>
<path d="M88.7983 22.192C88.0516 22.192 87.3476 22.0587 86.6863 21.792C86.0356 21.5147 85.4703 21.1253 84.9903 20.624C84.5209 20.1227 84.1689 19.5307 83.9342 18.848L85.9663 17.936C86.2649 18.5867 86.6756 19.0987 87.1983 19.472C87.7316 19.8453 88.3183 20.032 88.9583 20.032C89.2996 20.032 89.5929 19.9787 89.8383 19.872C90.0836 19.7653 90.2756 19.6213 90.4143 19.44C90.5529 19.248 90.6223 19.024 90.6223 18.768C90.6223 18.4907 90.5369 18.256 90.3663 18.064C90.1956 17.8613 89.9289 17.7013 89.5663 17.584L87.2303 16.816C86.2809 16.5067 85.5663 16.0693 85.0863 15.504C84.6063 14.928 84.3663 14.24 84.3663 13.44C84.3663 12.736 84.5369 12.1173 84.8783 11.584C85.2303 11.0507 85.7156 10.6347 86.3343 10.336C86.9636 10.0373 87.6836 9.888 88.4943 9.888C89.2089 9.888 89.8703 10.0107 90.4783 10.256C91.0863 10.5013 91.6089 10.848 92.0463 11.296C92.4943 11.744 92.8303 12.2827 93.0543 12.912L91.0383 13.824C90.8143 13.2693 90.4783 12.8373 90.0303 12.528C89.5823 12.208 89.0703 12.048 88.4943 12.048C88.1636 12.048 87.8703 12.1013 87.6143 12.208C87.3583 12.3147 87.1609 12.4693 87.0223 12.672C86.8836 12.864 86.8143 13.088 86.8143 13.344C86.8143 13.6213 86.9049 13.8667 87.0863 14.08C87.2676 14.2827 87.5396 14.4427 87.9023 14.56L90.1903 15.296C91.1503 15.6053 91.8649 16.0373 92.3343 16.592C92.8143 17.1467 93.0543 17.824 93.0543 18.624C93.0543 19.3173 92.8729 19.936 92.5103 20.48C92.1476 21.0133 91.6463 21.4347 91.0063 21.744C90.3769 22.0427 89.6409 22.192 88.7983 22.192ZM103.79 22.192C102.894 22.192 102.062 22.0373 101.294 21.728C100.526 21.4187 99.8536 20.9867 99.2776 20.432C98.7123 19.8667 98.2696 19.2107 97.9496 18.464C97.6296 17.7173 97.4696 16.9067 97.4696 16.032C97.4696 15.1573 97.6243 14.3467 97.9336 13.6C98.2536 12.8533 98.6963 12.2027 99.2616 11.648C99.8376 11.0933 100.51 10.6613 101.278 10.352C102.046 10.0427 102.883 9.888 103.79 9.888C104.696 9.888 105.534 10.0427 106.302 10.352C107.07 10.6613 107.736 11.0933 108.302 11.648C108.878 12.2027 109.32 12.8533 109.63 13.6C109.95 14.3467 110.11 15.1573 110.11 16.032C110.11 16.9067 109.95 17.7173 109.63 18.464C109.31 19.2107 108.862 19.8667 108.286 20.432C107.72 20.9867 107.054 21.4187 106.286 21.728C105.518 22.0373 104.686 22.192 103.79 22.192ZM103.79 19.952C104.334 19.952 104.835 19.856 105.294 19.664C105.763 19.472 106.174 19.2053 106.526 18.864C106.878 18.512 107.15 18.096 107.342 17.616C107.534 17.136 107.63 16.608 107.63 16.032C107.63 15.456 107.534 14.9333 107.342 14.464C107.15 13.984 106.878 13.568 106.526 13.216C106.174 12.864 105.763 12.5973 105.294 12.416C104.835 12.224 104.334 12.128 103.79 12.128C103.246 12.128 102.739 12.224 102.27 12.416C101.811 12.5973 101.406 12.864 101.054 13.216C100.702 13.568 100.43 13.984 100.238 14.464C100.046 14.9333 99.9496 15.456 99.9496 16.032C99.9496 16.608 100.046 17.136 100.238 17.616C100.43 18.096 100.702 18.512 101.054 18.864C101.406 19.2053 101.811 19.472 102.27 19.664C102.739 19.856 103.246 19.952 103.79 19.952ZM106.318 23.44L102.766 17.232H105.326L108.926 23.44H106.318ZM119.605 22.192C118.666 22.192 117.829 21.9947 117.093 21.6C116.357 21.2053 115.775 20.6667 115.349 19.984C114.933 19.2907 114.725 18.5067 114.725 17.632V10.08H117.205V17.472C117.205 17.9413 117.306 18.368 117.509 18.752C117.722 19.1253 118.01 19.4187 118.373 19.632C118.735 19.8453 119.146 19.952 119.605 19.952C120.074 19.952 120.485 19.8453 120.837 19.632C121.199 19.4187 121.482 19.1253 121.685 18.752C121.898 18.368 122.005 17.9413 122.005 17.472V10.08H124.485V17.632C124.485 18.5067 124.271 19.2907 123.845 19.984C123.429 20.6667 122.853 21.2053 122.117 21.6C121.381 21.9947 120.543 22.192 119.605 22.192ZM128.254 22L132.286 10.08H135.582L139.614 22H136.91L136.11 19.568H131.742L130.942 22H128.254ZM132.43 17.408H135.422L133.598 11.776H134.27L132.43 17.408ZM143.853 22V10.08H148.413C149.234 10.08 149.96 10.224 150.589 10.512C151.229 10.8 151.73 11.2267 152.093 11.792C152.456 12.3573 152.637 13.056 152.637 13.888C152.637 14.6987 152.45 15.392 152.077 15.968C151.704 16.5333 151.202 16.96 150.573 17.248L153.293 22H150.509L147.565 16.736L149.165 17.68H146.333V22H143.853ZM146.333 15.52H148.429C148.781 15.52 149.085 15.4507 149.341 15.312C149.597 15.1733 149.794 14.9813 149.933 14.736C150.082 14.4907 150.157 14.208 150.157 13.888C150.157 13.5573 150.082 13.2693 149.933 13.024C149.794 12.7787 149.597 12.5867 149.341 12.448C149.085 12.3093 148.781 12.24 148.429 12.24H146.333V15.52ZM157.525 22V10.08H165.541V12.24H160.005V14.944H165.221V17.104H160.005V19.84H165.541V22H157.525ZM170.955 22V19.6H173.355V22H170.955Z" fill="#04A558"/>
</svg>
